<svg width="23.333344" height="23.274902" viewBox="0 0 23.3333 23.2749" fill="none" xmlns="http://www.w3.org/2000/svg" xmlns:xlink="http://www.w3.org/1999/xlink">
	<desc>
			Created with Pixso.
	</desc>
	<defs/>
	<path id="Vector" d="M23.33 11.66C23.33 5.22 18.1 0 11.66 0C5.22 0 0 5.22 0 11.66C0 17.31 4.01 22.01 9.33 23.1L9.33 15.16L7 15.16L7 11.66L9.33 11.66L9.33 8.75C9.33 6.49 11.16 4.66 13.41 4.66L16.33 4.66L16.33 8.16L14 8.16C13.35 8.16 12.83 8.69 12.83 9.33L12.83 11.66L16.33 11.66L16.33 15.16L12.83 15.16L12.83 23.27C18.72 22.69 23.33 17.72 23.33 11.66Z" fill="#3461FF" fill-opacity="1.000000" fill-rule="nonzero"/>
</svg>
