<svg width="28.000000" height="28.000000" viewBox="0 0 28 28" fill="none" xmlns="http://www.w3.org/2000/svg" xmlns:xlink="http://www.w3.org/1999/xlink">
	<desc>
			Created with Pixso.
	</desc>
	<defs>
		<clipPath id="clip1_1031">
			<rect id="ri:instagram-fill" rx="-0.500000" width="27.000000" height="27.000000" transform="translate(0.500000 0.500000)" fill="white" fill-opacity="0"/>
		</clipPath>
	</defs>
	<rect id="ri:instagram-fill" rx="-0.500000" width="27.000000" height="27.000000" transform="translate(0.500000 0.500000)" fill="#FAFAFA" fill-opacity="0"/>
	<g clip-path="url(#clip1_1031)">
		<path id="Vector" d="M13.99 2.33C17.16 2.33 17.56 2.34 18.8 2.4C20.05 2.46 20.89 2.65 21.64 2.94C22.41 3.24 23.06 3.64 23.7 4.29C24.3 4.87 24.76 5.57 25.05 6.35C25.34 7.1 25.53 7.94 25.59 9.19C25.65 10.43 25.66 10.82 25.66 13.99C25.66 17.16 25.65 17.56 25.59 18.8C25.53 20.05 25.34 20.89 25.05 21.64C24.76 22.42 24.3 23.12 23.7 23.7C23.12 24.3 22.41 24.76 21.64 25.05C20.89 25.34 20.05 25.53 18.8 25.59C17.56 25.65 17.16 25.66 13.99 25.66C10.82 25.66 10.43 25.65 9.19 25.59C7.94 25.53 7.1 25.34 6.35 25.05C5.57 24.76 4.87 24.3 4.29 23.7C3.69 23.12 3.23 22.42 2.94 21.64C2.65 20.89 2.46 20.05 2.4 18.8C2.34 17.56 2.33 17.16 2.33 13.99C2.33 10.82 2.34 10.43 2.4 9.19C2.46 7.94 2.65 7.1 2.94 6.35C3.23 5.57 3.69 4.87 4.29 4.29C4.87 3.69 5.57 3.23 6.35 2.94C7.1 2.65 7.94 2.46 9.19 2.4C10.43 2.34 10.82 2.33 13.99 2.33ZM13.99 8.16C12.45 8.16 10.96 8.78 9.87 9.87C8.78 10.96 8.16 12.45 8.16 13.99C8.16 15.54 8.78 17.03 9.87 18.12C10.96 19.21 12.45 19.83 13.99 19.83C15.54 19.83 17.03 19.21 18.12 18.12C19.21 17.03 19.83 15.54 19.83 13.99C19.83 12.45 19.21 10.96 18.12 9.87C17.03 8.78 15.54 8.16 13.99 8.16ZM21.58 7.87C21.58 7.48 21.42 7.11 21.15 6.84C20.88 6.57 20.51 6.41 20.12 6.41C19.73 6.41 19.36 6.57 19.09 6.84C18.82 7.11 18.66 7.48 18.66 7.87C18.66 8.26 18.82 8.63 19.09 8.9C19.36 9.17 19.73 9.33 20.12 9.33C20.51 9.33 20.88 9.17 21.15 8.9C21.42 8.63 21.58 8.26 21.58 7.87ZM13.99 10.49C14.92 10.49 15.81 10.86 16.47 11.52C17.13 12.18 17.49 13.07 17.49 13.99C17.49 14.92 17.13 15.81 16.47 16.47C15.81 17.13 14.92 17.49 13.99 17.49C13.07 17.49 12.18 17.13 11.52 16.47C10.86 15.81 10.49 14.92 10.49 13.99C10.49 13.07 10.86 12.18 11.52 11.52C12.18 10.86 13.07 10.49 13.99 10.49Z" fill="#3461FF" fill-opacity="1.000000" fill-rule="nonzero"/>
	</g>
</svg>
