<svg width="189.618164" height="44.000000" viewBox="0 0 189.618 44" fill="none" xmlns="http://www.w3.org/2000/svg" xmlns:xlink="http://www.w3.org/1999/xlink">
	<desc>
			Created with Pixso.
	</desc>
	<defs/>
	<path id="Embrace" d="M66.89 35L48.93 35L48.93 8.4L66.84 8.4L66.84 13.04L54.55 13.04L54.55 19.37L65.92 19.37L65.92 24.01L54.55 24.01L54.55 30.36L66.89 30.36L66.89 35ZM104.94 35L99.49 35L99.49 8.4L105.02 8.4L105.02 18.4L105.18 18.4C105.92 16.78 107.52 14.79 110.86 14.79C115.23 14.79 118.94 18.2 118.94 25.05C118.94 31.72 115.39 35.32 110.85 35.32C107.63 35.32 105.95 33.46 105.18 31.8L104.94 31.8L104.94 35ZM125.55 35L120.02 35L120.02 15.05L125.38 15.05L125.38 18.53L125.59 18.53C126.32 16.06 128.15 14.77 130.38 14.77C130.94 14.77 131.63 14.85 132.12 14.96L132.12 19.09C133.39 16.41 136.25 14.79 140.27 14.79C144.71 14.79 148.74 16.79 148.74 21.54L148.74 35L143.49 35L143.49 32.23L143.33 32.23C142.36 34.08 140.45 35.37 137.5 35.37C133.7 35.37 130.89 33.37 130.89 29.42C130.89 24.97 134.43 23.65 138.37 23.28C141.84 22.94 143.2 22.77 143.2 21.49L143.2 21.42C143.2 19.78 142.12 18.83 140.24 18.83C138.26 18.83 137.07 19.8 136.7 21.13L131.58 20.71C131.65 20.39 131.73 20.09 131.84 19.79C131.28 19.66 130.43 19.57 129.78 19.57C127.35 19.57 125.55 21.26 125.55 23.71L125.55 35ZM74.16 35L68.63 35L68.63 15.05L73.9 15.05L73.9 18.57L74.13 18.57C74.96 16.22 77 14.79 79.69 14.79C82.43 14.79 84.47 16.26 85.1 18.57L85.31 18.57C86.13 16.29 88.41 14.79 91.33 14.79C95.04 14.79 97.61 17.26 97.61 21.58L97.61 35L92.09 35L92.09 22.68C92.09 20.45 90.76 19.35 89 19.35C86.99 19.35 85.81 20.75 85.81 22.82L85.81 35L80.44 35L80.44 22.56C80.44 20.6 79.22 19.35 77.41 19.35C75.56 19.35 74.16 20.82 74.16 23.02L74.16 35ZM168.36 27.68C168.1 32.27 164.77 35.39 159.46 35.39C153.31 35.39 149.64 31.17 149.64 25.1C149.64 18.99 153.38 14.79 159.43 14.79C164.63 14.79 168.12 17.82 168.36 22.43L163.14 22.43C162.84 20.44 161.54 19.11 159.52 19.11C156.95 19.11 155.26 21.26 155.26 25.02C155.26 28.84 156.94 31 159.52 31C161.41 31 162.81 29.82 163.14 27.68L168.36 27.68ZM187.46 29.28C186.68 32.99 183.35 35.39 178.41 35.39C172.27 35.39 168.52 31.43 168.52 25.11C168.52 18.96 172.32 14.79 178.2 14.79C183.47 14.79 187.57 18.14 187.57 24.92L187.57 26.43L173.99 26.43L173.99 26.45C173.99 29.42 175.74 31.25 178.51 31.25C180.35 31.25 181.78 30.46 182.34 28.94L187.46 29.28ZM178.29 18.92C175.83 18.92 174.11 20.74 173.99 23.01L182.37 23.01C182.35 20.63 180.69 18.92 178.29 18.92ZM109.09 19.2C106.4 19.2 104.9 21.46 104.9 25.02C104.9 28.58 106.43 30.92 109.09 30.92C111.8 30.92 113.29 28.51 113.29 25.02C113.29 21.57 111.83 19.2 109.09 19.2ZM136.17 29.25C136.17 30.76 137.38 31.56 139.09 31.56C141.52 31.56 143.24 29.96 143.24 27.86L143.24 25.75C142.58 26.19 140.61 26.48 139.4 26.65C137.46 26.92 136.17 27.68 136.17 29.25Z" fill="#000000" fill-opacity="1.000000" fill-rule="evenodd"/>
	<circle id="Ellipse 87" cx="12.301880" cy="21.366455" r="12.301899" fill="#3461FF" fill-opacity="1.000000"/>
	<path id="Polygon 1" d="M44.7 22.48L25.25 33.82C24.39 34.33 23.3 33.7 23.3 32.7L23.3 10.02C23.3 9.02 24.39 8.4 25.25 8.9L34.96 14.56L44.7 20.24C45.55 20.74 45.55 21.98 44.7 22.48Z" fill="#3461FF" fill-opacity="1.000000" fill-rule="nonzero"/>
</svg>
