<svg width="28.000000" height="28.000000" viewBox="0 0 28 28" fill="none" xmlns="http://www.w3.org/2000/svg" xmlns:xlink="http://www.w3.org/1999/xlink">
	<desc>
			Created with Pixso.
	</desc>
	<defs>
		<clipPath id="clip1_1033">
			<rect id="bi:twitter" rx="-0.500000" width="27.000000" height="27.000000" transform="translate(0.500000 0.500000)" fill="white" fill-opacity="0"/>
		</clipPath>
	</defs>
	<rect id="bi:twitter" rx="-0.500000" width="27.000000" height="27.000000" transform="translate(0.500000 0.500000)" fill="#FAFAFA" fill-opacity="0"/>
	<g clip-path="url(#clip1_1033)">
		<path id="Vector" d="M9.53 23.5C18.59 23.5 23.55 15.99 23.55 9.5C23.55 9.29 23.55 9.07 23.54 8.86C24.5 8.16 25.33 7.3 26 6.31C25.09 6.71 24.14 6.97 23.16 7.09C24.19 6.47 24.96 5.5 25.33 4.36C24.36 4.93 23.31 5.34 22.2 5.55C21.46 4.76 20.48 4.24 19.41 4.06C18.34 3.88 17.24 4.07 16.28 4.58C15.33 5.09 14.57 5.9 14.12 6.89C13.67 7.88 13.56 8.98 13.81 10.04C11.85 9.94 9.93 9.43 8.19 8.55C6.44 7.66 4.89 6.42 3.66 4.9C3.03 5.98 2.84 7.27 3.12 8.49C3.4 9.71 4.14 10.77 5.18 11.47C4.4 11.44 3.64 11.23 2.95 10.86L2.95 10.93C2.96 12.06 3.35 13.16 4.07 14.04C4.79 14.92 5.79 15.53 6.9 15.75C6.48 15.87 6.04 15.93 5.61 15.93C5.3 15.93 4.99 15.9 4.68 15.84C5 16.82 5.61 17.67 6.44 18.29C7.26 18.9 8.26 19.24 9.29 19.26C7.54 20.63 5.38 21.37 3.17 21.37C2.77 21.37 2.38 21.35 2 21.3C4.25 22.73 6.86 23.5 9.53 23.5Z" fill="#3461FF" fill-opacity="1.000000" fill-rule="nonzero"/>
	</g>
</svg>
